<svg xmlns="http://www.w3.org/2000/svg" viewBox="0 0 1200 750" width="1200" height="750" role="img" aria-label="CHIP-8 Emulator">
  <defs>
    <linearGradient id="g" x1="0" y1="0" x2="1" y2="1">
      <stop offset="0%" stop-color="#38bdf8" stop-opacity="0.20"/>
      <stop offset="100%" stop-color="#a78bfa" stop-opacity="0.08"/>
    </linearGradient>
    <pattern id="grid" width="48" height="48" patternUnits="userSpaceOnUse">
      <path d="M48 0H0V48" fill="none" stroke="#ffffff" stroke-opacity="0.05" stroke-width="1"/>
    </pattern>
  </defs>
  <rect width="1200" height="750" fill="#0b0d12"/>
  <rect width="1200" height="750" fill="url(#grid)"/>
  <rect width="1200" height="750" fill="url(#g)"/>
  <circle cx="170" cy="140" r="240" fill="#38bdf8" fill-opacity="0.13"/>
  <circle cx="1040" cy="630" r="240" fill="#a78bfa" fill-opacity="0.13"/>
  <rect x="150" y="470" width="62" height="34" rx="5" fill="#f2f4f8" fill-opacity="0.10"/><rect x="232" y="470" width="62" height="34" rx="5" fill="#f2f4f8" fill-opacity="0.10"/><rect x="314" y="470" width="62" height="34" rx="5" fill="#f2f4f8" fill-opacity="0.10"/><rect x="396" y="470" width="62" height="34" rx="5" fill="#38bdf8" fill-opacity="0.55"/><rect x="478" y="470" width="62" height="34" rx="5" fill="#f2f4f8" fill-opacity="0.10"/><rect x="560" y="470" width="62" height="34" rx="5" fill="#38bdf8" fill-opacity="0.55"/><rect x="642" y="470" width="62" height="34" rx="5" fill="#38bdf8" fill-opacity="0.55"/><rect x="724" y="470" width="62" height="34" rx="5" fill="#f2f4f8" fill-opacity="0.10"/><rect x="806" y="470" width="62" height="34" rx="5" fill="#f2f4f8" fill-opacity="0.10"/><rect x="888" y="470" width="62" height="34" rx="5" fill="#38bdf8" fill-opacity="0.55"/><rect x="970" y="470" width="62" height="34" rx="5" fill="#f2f4f8" fill-opacity="0.10"/><rect x="150" y="522" width="62" height="34" rx="5" fill="#f2f4f8" fill-opacity="0.10"/><rect x="232" y="522" width="62" height="34" rx="5" fill="#38bdf8" fill-opacity="0.55"/><rect x="314" y="522" width="62" height="34" rx="5" fill="#38bdf8" fill-opacity="0.55"/><rect x="396" y="522" width="62" height="34" rx="5" fill="#f2f4f8" fill-opacity="0.10"/><rect x="478" y="522" width="62" height="34" rx="5" fill="#f2f4f8" fill-opacity="0.10"/><rect x="560" y="522" width="62" height="34" rx="5" fill="#f2f4f8" fill-opacity="0.10"/><rect x="642" y="522" width="62" height="34" rx="5" fill="#38bdf8" fill-opacity="0.55"/><rect x="724" y="522" width="62" height="34" rx="5" fill="#f2f4f8" fill-opacity="0.10"/><rect x="806" y="522" width="62" height="34" rx="5" fill="#f2f4f8" fill-opacity="0.10"/><rect x="888" y="522" width="62" height="34" rx="5" fill="#38bdf8" fill-opacity="0.55"/><rect x="970" y="522" width="62" height="34" rx="5" fill="#f2f4f8" fill-opacity="0.10"/><rect x="150" y="574" width="62" height="34" rx="5" fill="#38bdf8" fill-opacity="0.55"/><rect x="232" y="574" width="62" height="34" rx="5" fill="#f2f4f8" fill-opacity="0.10"/><rect x="314" y="574" width="62" height="34" rx="5" fill="#f2f4f8" fill-opacity="0.10"/><rect x="396" y="574" width="62" height="34" rx="5" fill="#38bdf8" fill-opacity="0.55"/><rect x="478" y="574" width="62" height="34" rx="5" fill="#f2f4f8" fill-opacity="0.10"/><rect x="560" y="574" width="62" height="34" rx="5" fill="#f2f4f8" fill-opacity="0.10"/><rect x="642" y="574" width="62" height="34" rx="5" fill="#38bdf8" fill-opacity="0.55"/><rect x="724" y="574" width="62" height="34" rx="5" fill="#f2f4f8" fill-opacity="0.10"/><rect x="806" y="574" width="62" height="34" rx="5" fill="#38bdf8" fill-opacity="0.55"/><rect x="888" y="574" width="62" height="34" rx="5" fill="#f2f4f8" fill-opacity="0.10"/><rect x="970" y="574" width="62" height="34" rx="5" fill="#f2f4f8" fill-opacity="0.10"/><rect x="150" y="626" width="62" height="34" rx="5" fill="#38bdf8" fill-opacity="0.55"/><rect x="232" y="626" width="62" height="34" rx="5" fill="#f2f4f8" fill-opacity="0.10"/><rect x="314" y="626" width="62" height="34" rx="5" fill="#f2f4f8" fill-opacity="0.10"/><rect x="396" y="626" width="62" height="34" rx="5" fill="#38bdf8" fill-opacity="0.55"/><rect x="478" y="626" width="62" height="34" rx="5" fill="#f2f4f8" fill-opacity="0.10"/><rect x="560" y="626" width="62" height="34" rx="5" fill="#38bdf8" fill-opacity="0.55"/><rect x="642" y="626" width="62" height="34" rx="5" fill="#f2f4f8" fill-opacity="0.10"/><rect x="724" y="626" width="62" height="34" rx="5" fill="#f2f4f8" fill-opacity="0.10"/><rect x="806" y="626" width="62" height="34" rx="5" fill="#38bdf8" fill-opacity="0.55"/><rect x="888" y="626" width="62" height="34" rx="5" fill="#f2f4f8" fill-opacity="0.10"/><rect x="970" y="626" width="62" height="34" rx="5" fill="#f2f4f8" fill-opacity="0.10"/>
  <g font-family="'Space Grotesk',system-ui,sans-serif">
    <text x="80" y="200" fill="#f2f4f8" font-size="66" font-weight="700">CHIP-8 Emulator</text>
    <text x="82" y="252" fill="#99a1b3" font-size="26" letter-spacing="2">C / C++ · Raylib</text>
  </g>
  <rect x="24" y="24" width="1152" height="702" rx="20" fill="none" stroke="#ffffff" stroke-opacity="0.09"/>
</svg>
